# xmcd CD database file
#
# Track frame offsets:
#	150
#	17119
#	34317
#	57449
#	74152
#	95307
#	118535
#	139413
#	161881
#	183240
#	203067
#	224564
#	241662
#	265748
#	286396
#	300536
#	315884
#
# Disc length: 4397 seconds
#
# Revision: 0
# Processed by: cddbd v1.4PL0 Copyright (c) Steve Scherf et al.
# Submitted via: CDex 1.50
#
DISCID=fb112b11
DTITLE=diverse artists - Hessen Jazz Idstein 1997
DYEAR=1997
DGENRE=Jazz
TTITLE0=Lumberjack Bug Band - John Brown´s other body
TTITLE1=Leathertown Jazzband - Route 66
TTITLE2=Milt Horck Quartett - Mornin´ air
TTITLE3=Mr. Jelly´s Jam Band - Oh By Jingo
TTITLE4=Martin Reuthner Quintett - Khaki Moon
TTITLE5=Matthias Hautsch´s Get it - Watson go on
TTITLE6=Henning Wolter Trio - Vovager
TTITLE7=Dirk Raufeisen - I want to be happy
TTITLE8=Scrapple From the Apple - Spain
TTITLE9=Esprit - Dr. Mabuse
TTITLE10=Delbroux Bass Society - BopDu
TTITLE11=Köstritzer Jazzband - Magic of Black
TTITLE12=Nashi Young Cho and Jazz Quartett - Lovermann
TTITLE13=Joachim Schönecker Quartett - Back and Fourth
TTITLE14=The Real Climax Band Cologne - Nagasaki
TTITLE15=Leisinger - Two for one
TTITLE16=Sunny Gets Blue - What a difference a day made The lady is a tramp
EXTD=YEAR: 1997
EXTT0=
EXTT1=
EXTT2=
EXTT3=
EXTT4=
EXTT5=
EXTT6=
EXTT7=
EXTT8=
EXTT9=
EXTT10=
EXTT11=
EXTT12=
EXTT13=
EXTT14=
EXTT15=
EXTT16=
PLAYORDER=
